<?xml version="1.0" encoding="utf-8"?>
<!-- Generator: Adobe Illustrator 21.0.0, SVG Export Plug-In . SVG Version: 6.00 Build 0)  -->
<svg version="1.1" id="Layer_1" xmlns="http://www.w3.org/2000/svg" xmlns:xlink="http://www.w3.org/1999/xlink" x="0px" y="0px"
	 viewBox="0 0 1000 1000" style="enable-background:new 0 0 1000 1000;" xml:space="preserve">
<style type="text/css">
	.letter{
		fill:#fff;
		transition: 1s;
		animation: scaleHR 0.8s ease-in-out forwards;
		animation-delay: 2.5s;
	}
	.dot{
		fill:#013971;
		animation: blink-and-move 3s ease-in-out forwards;
	}

	.task{
		transition: 1s;
		fill:#fff;
		animation: scaleTask 0.8s ease-in-out forwards;
		animation-delay: 4.5s;
	}

	@keyframes blink-and-move {
		0%{
			fill: #013971;
			transform: translate(-63%, 0px);
		}
		9%{
			fill: #013971;
		}
		10%{fill: #fff;}
		20%{fill: #013971;}
		30%{fill: #fff;}
		40%{fill: #013971;}
		50%{fill: #fff;}
		
		60%{
			fill: #013971;
			transform: translate(-63%, 0px);
		}
		100%{transform: translate(0px, 0px);}
	}

	@keyframes scaleHR{
		0%{ 
			fill: #090909;
			transform: scale(6) translate(-40%, -75%);
		}
		70%{ 
			transform: scale(1);
		}
		86%{ 
			transform: scale(1.05) translate(-1%, -5%);
		}
		100%{ 
			fill: #090909;
			transform: scale(1);
		}
	}
	@keyframes scaleTask{
		0%{ 
			fill: #f00;
			transform: scale(6) translate(-40%, -75%);
		}
		70%{ 
			transform: scale(1);
		}
		86%{ 
			transform: scale(1.05) translate(-1%, -5%);
		}
		100%{ 
			fill: #f00;
			transform: scale(1);
		}
	}

</style>
<g>
	<path class="letter letter-h" d="M292.1,349.6c-56.7,0-112.3,0-168.5,0c0,50.8,0,101.3,0,152.3c-29.8,0-59,0-88.6,0c0-132.4,0-264.6,0-397.1
		c29.5,0,58.7,0,88.5,0c0,56.7,0,113.1,0,169.8c56.3,0,112.1,0,168.4,0c0-56.6,0-113.1,0-169.8c29.6,0,58.6,0,88.1,0
		c0,132.5,0,264.7,0,397.2c-29.5,0-58.4,0-87.8,0C292.1,451.3,292.1,400.7,292.1,349.6z"/>
	<path class="letter letter-r" d="M719.1,349.6c8.6,14.2,16.9,28,25,41.2c-12.6,6.5-25.1,11.9-36.6,19.1c-11.6,7.1-22.1,15.9-33.1,24
		c-13-21.7-26.4-44.1-39.8-66.4c-1.7-2.8-4.1-5.3-4.9-8.3c-2.6-9.4-8.9-10.3-17.4-10c-20.7,0.6-41.4,0.2-62.7,0.2
		c0,25.7,0,50.9,0,76.2s0,50.6,0,76.4c-28.4,0-56.7,0-85.2,0c0-132.4,0-264.6,0-396.9c0.8-0.2,1.4-0.4,1.9-0.4
		c64.4,0.2,128.7,0.2,193.1,0.6c29.3,0.2,57.5,6.1,83.7,19.7c45.8,23.8,69.7,70.9,63.3,121.2c-2.3,18.3-6.6,35.9-14.4,52.7
		c-7.5,16.1-19.9,27.2-35.5,34.7c-10.5,5-21.4,9.2-32.1,13.7C722.7,348,721.1,348.7,719.1,349.6z M549.8,273.7
		c36.1,0,71.7,0.1,107.3-0.1c10.8-0.1,21.7-0.4,32.5-1.7c16-1.9,25.8-10.6,28.8-26.4c1.8-9.3,2.3-19.1,1.5-28.6
		c-1.5-18-13.8-31.3-31.4-35.2c-5.5-1.2-11.1-1.9-16.7-1.9c-39.8-0.3-79.6-0.4-119.4-0.6c-0.8,0-1.5,0.2-2.5,0.3
		C549.8,210.9,549.8,242,549.8,273.7z"/>
</g>
<g>
	<path class="letter letter-t" d="M271.4,636.8c0.1,6.6,3.2,10.6,8.2,12.8c8,3.6,16.2,3.8,23.6-1.3c6.7-4.6,13.9-2.6,21-2.2c1,0,3.2,4.5,2.6,5.8
		c-1.6,3.5-4,7.2-7,9.5c-13.9,10.9-29.6,13.4-45.9,7c-15.8-6.2-22.5-19.5-23.5-35.6c-0.4-7.1,0.2-14.6,2.2-21.4
		c5.7-19.5,22.8-30.2,43-27.7c18.7,2.2,33.4,17.6,34.5,37c1,18.7,1.2,16-14.5,16.1C301,636.9,286.6,636.8,271.4,636.8z M307.8,618.2
		c-1.6-10.7-7.5-15.4-18.3-15.2c-10,0.2-16.8,6-17.6,15.2C283.7,618.2,295.5,618.2,307.8,618.2z"/>
	<path class="letter letter-e" d="M509.5,671.6c-27.4-0.1-44.4-20.8-41.4-50.5c1.7-16.1,9-28.5,24.4-34.5c15.8-6.2,31.5-4.7,44.9,6.3
		c4.8,4,7.7,10.5,10.8,16.2c0.8,1.4-0.2,5-1.6,6.2c-3.8,3.2-17.3,0.7-20.1-3.5c-4.8-7.3-11.7-9.4-19.9-8.6
		c-8.3,0.8-14.6,5.7-16.1,13.9c-1.1,6-1.3,12.4-0.6,18.5c0.9,8,5.6,13.8,13.8,15.6c8.6,1.9,16.4,0.8,22.1-7
		c3.5-4.8,15.4-7.9,20.3-4.7c1.6,1,2.5,5,1.9,7.1c-4.1,14.1-14.8,20.9-28.3,24C516.4,671.3,513.4,671.6,509.5,671.6z"/>
	<path class="letter letter-c" d="M66,604.9c-15.1-1.3-15.1-1.3-15.1-9.1c0-10,0-10,15.1-11.4c0-7.7,0.2-15.5-0.1-23.2c-0.2-5.2,1.9-7.2,7.1-7.2
		c15.7,0.1,14.5-1,14.4,14.2c0,5.4,0,10.7,0,16.6c6.7,0,12.9,0.1,19.1,0c4.6-0.1,6.4,1.9,6.5,6.5c0.3,13.1,0.4,13.1-12.5,13.1
		c-4.2,0-8.4,0-13,0c0,12.8-0.2,25,0.1,37.2c0.1,5,3.4,8.1,8.5,8.5c4.2,0.3,8.4,0.2,12.6,0.3c3.6,0.1,5.4,1.7,5.7,5.5
		c1,13.9,0.7,14.3-13.1,14.3c-2.4,0-4.8,0.1-7.2-0.2C75,668.4,66,658.6,65.9,639.4C65.9,628.1,66,616.6,66,604.9z"/>
</g>
<g class="task">
	<path class="st2" d="M323.3,718.6l3.3-2.2l3.3,1.1c1.1,0,3.3,0,4.3-1.1c1.1-1.1,2.2-1.1,3.3-2.2c1.1,0,2.2-1.1,3.3-2.2
		s3.3-2.2,4.3-2.2c2.2,0,3.3-1.1,4.3-2.2c0-1.1,1.1-2.2,3.3-2.2c1.1-1.1,3.3-1.1,4.3-1.1l13-4.3c1.1,0,1.1,1.1,2.2,1.1h-2.2
		c1.1,0,2.2-1.1,3.3-2.2c1.1-1.1,2.2-1.1,4.3-2.2c2.2-1.1,4.3-1.1,5.4-2.2l1.1,1.1c2.2-2.2,3.3-3.3,4.3-3.3h1.1l3.3,1.1
		c2.2-1.1,4.3-1.1,6.5-1.1l3.3-1.1c1.1,0,1.1,0,1.1,1.1c1.1-1.1,2.2-1.1,3.3-2.2h2.2l6.5-2.2l2.2,1.1c2.2-1.1,3.3-2.2,5.4-2.2h1.1
		l2.2,1.1c1.1,0,2.2-1.1,3.3-1.1c4.3-1.1,7.6-1.1,11.9-1.1l4.3,1.1c1.1-1.1,3.3-1.1,4.3-2.2l4.3,1.1l2.2-1.1h1.1
		c1.1,0,1.1,1.1,2.2,1.1h-1.1l10.8-2.2l1.1,1.1c1.1-1.1,1.1-1.1,2.2-1.1l3.3,1.1c1.1,0,3.3-1.1,4.3-2.2l1.1,1.1l9.8-1.1l4.3,1.1
		l3.3-1.1c3.3,0,5.4,1.1,7.6,3.3c1.1,1.1,2.2,3.3,2.2,5.4l1.1,4.3l-1.1,2.2l-8.7,5.4c0,1.1-1.1,2.2-2.2,2.2c0,0-1.1,0-1.1,1.1
		c-1.1,0-2.2,1.1-3.3,1.1c-3.3,1.1-5.4,1.1-8.7,1.1c-2.2,0-4.3-1.1-4.3-2.2s-1.1-2.2-2.2-3.3l-6.5-3.3c-1.1,0-1.1-1.1-2.2-1.1h-1.1
		l-6.5,1.1l-2.2-1.1l-2.2,1.1l-10.8-1.1l-4.3,1.1l-3.3-1.1c-1.1,0-1.1,0-2.2,1.1c-2.2,0-4.3,1.1-6.5,1.1c-3.3,0-4.3,1.1-4.3,3.3
		c0,1.1,0,2.2,1.1,3.3c1.1,1.1,1.1,2.2,1.1,3.3c-1.1,1.1-2.2,2.2-2.2,4.3c-1.1,1.1-2.2,1.1-2.2,2.2c-1.1,1.1-3.3,2.2-5.4,4.3
		c-2.2,1.1-4.3,3.3-5.4,5.4s-2.2,2.2-3.3,3.3c-1.1,1.1-3.3,3.3-4.3,4.3l-1.1,1.1c0,1.1-1.1,1.1,0,1.1c0,1.1-1.1,1.1-1.1,2.2
		l-1.1,3.3c-2.2,2.2-4.3,5.4-6.5,7.6l-2.2,1.1l-2.2,2.2h-2.2c-1.1,0-1.1,1.1-1.1,2.2l3.3,3.3c-1.1,1.1-2.2,3.3-3.3,5.4l-2.2,3.3
		c-1.1,1.1-2.2,2.2-3.3,3.3c-1.1,2.2-1.1,4.3-3.3,6.5v2.2c0,2.2-3.3,6.5-9.8,15.2c0,1.1,0,3.3,0,6.5c-3.3,5.4-5.4,8.7-6.5,8.7
		c0,3.3-1.1,6.5-2.2,8.7c-1.1,3.3-3.3,7.6-4.3,10.8c-1.1,3.3-3.3,6.5-5.4,9.8l-1.1,1.1c-1.1,1.1-1.1,2.2-2.2,2.2
		c-1.1,4.3-1.1,8.7-3.3,13l-1.1,8.7l-3.3,8.7c0,0-1.1,1.1-1.1,2.2c0,1.1,0,1.1,1.1,2.2c1.1,2.2,1.1,4.3,0,6.5c0,1.1-1.1,2.2-1.1,3.3
		c0,3.3-2.2,5.4-5.4,6.5H333l-3.3,1.1c-4.3,0-8.7-2.2-10.8-6.5c-3.3-4.3-5.4-10.8-5.4-16.3c0-1.1,0-3.3,1.1-4.3
		c1.1-3.3,1.1-4.3,1.1-5.4c0-1.1,1.1-2.2,1.1-2.2c0-1.1,1.1-2.2,1.1-3.3c0-4.3,1.1-8.7,3.3-11.9c2.2-2.2,3.3-5.4,5.4-7.6
		c0-1.1,0-1.1,1.1-1.1c-1.1-1.1-1.1-2.2-1.1-4.3c0-3.3,1.1-5.4,4.3-6.5c0-1.1,1.1-2.2,1.1-3.3c1.1-2.2,2.2-4.3,3.3-7.6
		c1.1-3.3,3.3-5.4,6.5-7.6c0-1.1,1.1-1.1,2.2-2.2l-1.1-5.4c1.1-1.1,1.1-3.3,3.3-4.3l3.3-4.3c1.1-2.2,2.2-3.3,4.3-4.3
		c1.1-1.1,1.1-2.2,2.2-2.2c0-1.1,1.1-2.2,1.1-4.3c1.1-3.3,2.2-5.4,4.3-7.6c2.2-3.3,4.3-6.5,6.5-9.8c2.2-3.3,4.3-5.4,6.5-5.4
		c1.1,0,2.2-1.1,3.3-2.2l0,0l0,0l1.1-5.4c2.2-1.1,3.3-3.3,5.4-5.4l2.2-2.2c0-1.1,1.1-2.2,2.2-3.3c1.1-1.1,2.2-1.1,2.2-3.3
		c1.1-1.1,2.2-3.3,4.3-4.3c1.1-4.3,4.3-8.7,8.7-10.8l2.2-2.2c1.1-2.2,3.3-3.3,4.3-5.4c1.1-1.1,2.2-2.2,2.2-3.3
		c0-1.1,2.2-3.3,3.3-3.3c2.2-1.1,2.2-2.2,2.2-2.2c0-1.1-1.1-1.1-1.1-1.1c-1.1,0-2.2,0-4.3,1.1h-1.1l-3.3,1.1h-1.1l-3.3-1.1
		c-1.1,1.1-3.3,1.1-4.3,1.1l-2.2,2.2h-3.3l-1.1,1.1l-1.1,1.1l-4.3-1.1c-2.2,0-3.3,1.1-4.3,2.2c-1.1,1.1-3.3,1.1-5.4,1.1
		c-3.3,1.1-6.5,1.1-8.7,3.3c-1.1,1.1-3.3,2.2-5.4,2.2l-3.3-1.1l0,0c-1.1,0-2.2,0-3.3,2.2c-1.1,1.1-3.3,2.2-4.3,2.2h-1.1
		c-2.2,0-4.3,1.1-6.5,2.2c-1.1,1.1-3.3,1.1-4.3,2.2l-3.3-1.1c-1.1,1.1-2.2,1.1-3.3,2.2c-1.1,1.1-2.2,1.1-2.2,2.2
		c-1.1,1.1-2.2,1.1-2.2,2.2c-1.1,1.1-2.2,1.1-3.3,2.2s-1.1,1.1-2.2,1.1h-1.1l3.3,0c-1.1,0-2.2,1.1-3.3,2.2s-1.1,2.2-3.3,2.2
		c-1.1,0-2.2,1.1-3.3,2.2s-2.2,1.1-3.3,1.1c-1.1,1.1-2.2,2.2-2.2,3.3c-1.1,1.1-2.2,3.3-3.3,4.3l-3.3,3.3l-1.1,1.1
		c-5.4,0-7.6-3.3-7.6-8.7l3.3-6.5c1.1-4.3,5.4-7.6,9.8-8.7c3.3-1.1,5.4-2.2,8.7-3.3L323.3,718.6z"/>
	<path class="st2" d="M700.6,836.8c-2.2,0-4.3,2.2-6.5,4.3l-1.1,1.1c-2.2,1.1-3.3,2.2-4.3,3.3c-1.1,1.1-3.3,3.3-5.4,4.3
		c0,2.2-1.1,3.3-2.2,3.3h-2.2c-1.1,0-2.2,1.1-3.3,3.3c-1.1,2.2-3.3,3.3-5.4,4.3s-3.3,2.2-4.3,3.3c0,1.1-1.1,2.2-3.3,2.2l-2.2,1.1
		c-1.1,1.1-2.2,2.2-4.3,2.2c-1.1,0-2.2,1.1-3.3,1.1c-1.1,0-2.2-1.1-4.3-1.1c-2.2-1.1-3.3-1.1-4.3-3.3c-1.1-1.1-2.2-3.3-3.3-4.3
		c-1.1-2.2-1.1-3.3-3.3-4.3c-1.1-1.1-2.2-2.2-2.2-3.3c0-1.1,2.2-3.3,5.4-4.3c2.2-1.1,5.4-2.2,7.6-4.3c1.1-1.1,2.2-2.2,3.3-2.2
		c1.1-1.1,2.2-1.1,3.3-2.2l8.7-7.6l1.1-3.3c2.2-2.2,2.2-2.2,2.2-3.3l-1.1-3.3c1.1-2.2,2.2-3.3,2.2-4.3c0-6.5-1.1-9.8-4.3-10.8
		l-5.4-3.3l-6.5-3.3c-2.2,1.1-5.4,1.1-7.6,3.3c-3.3,1.1-6.5,4.3-7.6,7.6l-2.2-1.1c-1.1,0-2.2,1.1-3.3,2.2l-1.1,2.2l-2.2,2.2
		l-4.3,4.3l-3.3,1.1l1.1,3.3l-1.1,1.1l-2.2-1.1v1.1l0,0c-2.2,2.2-4.3,4.3-6.5,6.5l-4.3,4.3l-3.3,4.3c-1.1,1.1-2.2,3.3-2.2,4.3h1.1
		c-2.2,1.1-3.3,2.2-5.4,3.3l-1.1,2.2l-1.1-1.1v-3.3c0-1.1,0-2.2,1.1-2.2l2.2-1.1v-3.3l2.2-3.3c0-1.1,0-3.3,1.1-4.3
		c0-1.1,1.1-1.1,3.3-2.2l1.1-2.2c1.1-2.2,2.2-4.3,3.3-7.6c1.1-3.3,2.2-6.5,4.3-8.7l6.5-8.7c1.1-1.1,2.2-3.3,3.3-5.4
		c2.2-1.1,4.3-3.3,5.4-5.4c1.1-2.2,2.2-4.3,4.3-5.4c2.2-1.1,2.2-4.3,3.3-6.5c1.1,0,2.2-1.1,3.3-2.2l1.1-1.1c2.2-2.2,4.3-5.4,5.4-7.6
		l2.2-4.3c2.2-3.3,3.3-4.3,3.3-4.3l6.5-16.3c0-1.1,1.1-2.2,2.2-3.3c0-1.1,0-1.1-1.1-1.1l1.1-13v-3.3c0-1.1,0-2.2-1.1-3.3
		c-1.1-1.1-1.1-3.3-2.2-4.3c0-2.2-2.2-3.3-4.3-3.3c-3.3,0-5.4,1.1-7.6,4.3c-3.3,3.3-5.4,6.5-6.5,9.8l-1.1,1.1
		c-1.1,1.1-1.1,1.1-1.1,2.2l-1.1,1.1c-1.1,1.1-2.2,2.2-2.2,3.3h-3.3c0,0,0,1.1,1.1,1.1c-1.1,1.1-2.2,1.1-4.3,2.2
		c-2.2,4.3-3.3,7.6-4.3,9.8l-3.3,5.4c0,2.2-1.1,4.3-2.2,5.4c-1.1,2.2-2.2,3.3-3.3,5.4c-1.1,1.1-2.2,3.3-2.2,5.4l-2.2,2.2
		c-2.2,5.4-4.3,10.8-6.5,16.3l-2.2,2.2c-2.2,5.4-4.3,9.8-7.6,15.2c-1.1,1.1-2.2,3.3-4.3,4.3l-15.2,19.5c-1.1,0-2.2,1.1-3.3,3.3
		c0,1.1-1.1,1.1-2.2,2.2l-1.1,2.2l-1.1,1.1c-1.1,0-2.2,1.1-2.2,2.2c-1.1,1.1-2.2,2.2-2.2,3.3h-2.2c-1.1,1.1-3.3,3.3-4.3,4.3
		c-1.1,0-2.2,1.1-3.3,2.2c-2.2,2.2-5.4,4.3-8.7,5.4c0,0-1.1-1.1-1.1-2.2c1.1-1.1,1.1-3.3,2.2-4.3v-3.3l1.1-5.4v-6.5
		c1.1-1.1,1.1-2.2,1.1-3.3c-1.1-2.2-1.1-3.3-1.1-4.3c-1.1-1.1-1.1-3.3-1.1-4.3c-1.1-5.4-2.2-9.8-3.3-15.2c-1.1-5.4-3.3-9.8-7.6-13
		c-2.2-1.1-3.3-2.2-5.4-2.2c-2.2,0-4.3,1.1-5.4,2.2c-2.2,2.2-3.3,4.3-4.3,7.6c-1.1,2.2-1.1,5.4-3.3,7.6c-1.1,1.1-2.2,1.1-2.2,3.3
		l-2.2,3.3c-1.1,2.2-3.3,4.3-6.5,6.5c-2.2,2.2-4.3,4.3-7.6,6.5l-5.4,4.3l-1.1,1.1l-1.1-1.1c0-1.1-1.1-1.1-2.2-2.2
		c-2.2,0-3.3,1.1-5.4,3.3c-1.1,2.2-3.3,4.3-5.4,5.4c-1.1,0-3.3,2.2-3.3,3.3c0,1.1-1.1,2.2-3.3,2.2l-2.2,2.2
		c-1.1,1.1-2.2,2.2-3.3,4.3l-2.2,1.1c-1.1,1.1-2.2,1.1-3.3,3.3c-2.2,2.2-4.3,3.3-6.5,4.3c-1.1-1.1-1.1-2.2-1.1-4.3l1.1-4.3l-1.1-4.3
		c0-1.1,0-2.2,1.1-3.3c1.1-1.1,1.1-1.1,1.1-2.2l0,0l2.2-6.5c0-1.1,1.1-2.2,1.1-3.3c5.4-4.3,8.7-11.9,8.7-18.4c0-5.4-2.2-7.6-6.5-7.6
		c-4.3,0-8.7,2.2-11.9,5.4c-2.2,4.3-3.3,5.4-4.3,5.4c-1.1,0,3.3,1.1,3.3,0c-1.1-8.7-4.3-13-9.8-13c-1.1,0-1.1,0-2.2,1.1l-2.2,1.1
		l0,0c-1.1-1.1-2.2-1.1-3.3-1.1h-3.3c-2.2,1.1-5.4,3.3-7.6,4.3h-1.1c-2.2,0-3.3,1.1-5.4,2.2l-6.5,3.3c-2.2,1.1-4.3,2.2-6.5,4.3
		c-1.1,1.1-2.2,2.2-4.3,3.3c-4.3,2.2-7.6,5.4-10.8,8.7l-4.3,4.3c-2.2,1.1-3.3,2.2-5.4,4.3c-1.1,1.1-2.2,3.3-3.3,4.3
		c-1.1,1.1-2.2,2.2-2.2,4.3l-2.2,2.2c-1.1,1.1-2.2,3.3-3.3,4.3c-1.1,2.2-2.2,3.3-3.3,4.3v4.3c-2.2,0-3.3,1.1-3.3,2.2v6.5
		c0,1.1-1.1,2.2,0,2.2c0,2.2,0,3.3,1.1,5.4l2.2,6.5c1.1,2.2,2.2,4.3,5.4,5.4c3.3,1.1,6.5,2.2,9.8,2.2c6.5-1.1,11.9-4.3,17.3-7.6
		l1.1-1.1c2.2-1.1,3.3-2.2,5.4-3.3l10.8-8.7c1.1-1.1,3.3-2.2,3.3-4.3c1.1-1.1,1.1-2.2,2.2-3.3l3.3,1.1l2.2-2.2
		c1.1-1.1,1.1-2.2,3.3-2.2c1.1-1.1,2.2-1.1,2.2-2.2l1.1-1.1c1.1-1.1,2.2-1.1,3.3-3.3c0-2.2,1.1-3.3,2.2-4.3c1.1,0,2.2-1.1,3.3-2.2
		c1.1-1.1,2.2-2.2,2.2-2.2l1.1,1.1l-1.1,7.6c0,1.1,0,1.1,1.1,2.2c0,1.1,0,1.1,1.1,2.2c0,1.1,0,1.1-1.1,1.1s-1.1,1.1-1.1,1.1
		s1.1,1.1,1.1,2.2c0,1.1,1.1,1.1,1.1,2.2L435,866c0,1.1,0,3.3,1.1,4.3c1.1,1.1,1.1,2.2,2.2,3.3c0,1.1,1.1,1.1,1.1,2.2
		c2.2,0,3.3,1.1,5.4,2.2c1.1,1.1,3.3,1.1,5.4,1.1c1.1,0,2.2-1.1,2.2-1.1c1.1,0,3.3-1.1,4.3-2.2c2.2,0,3.3-1.1,4.3-2.2l1.1-2.2
		c1.1-1.1,2.2-1.1,3.3-1.1c1.1-1.1,2.2-2.2,4.3-3.3c2.2-1.1,3.3-1.1,3.3-3.3c1.1-2.2,2.2-3.3,4.3-3.3l2.2-2.2
		c1.1-1.1,2.2-2.2,3.3-3.3c0-1.1,1.1-2.2,3.3-2.2l1.1-2.2v-1.1l5.4-4.3l9.8-7.6c1.1-1.1,2.2-1.1,2.2-2.2c1.1-1.1,2.2-3.3,4.3-3.3
		c2.2-1.1,3.3-2.2,4.3-3.3c2.2-2.2,3.3-4.3,5.4-6.5c3.3-3.3,5.4-4.3,5.4-4.3s1.1,1.1,1.1,3.3c0,1.1,1.1,2.2,1.1,3.3l-1.1,4.3
		c0,1.1,1.1,2.2,1.1,2.2l-1.1,1.1l1.1,3.3l-4.3,2.2c0,1.1,0,2.2,1.1,2.2l1.1,1.1c0,1.1,0,1.1-1.1,2.2l0,0c-1.1,0-1.1,0-2.2,1.1l0,0
		v2.2c-1.1,1.1-1.1,2.2-1.1,3.3v2.2l-5.4,6.5l-2.2,5.4c-1.1,2.2-1.1,2.2-2.2,2.2h-1.1l-1.1,1.1c-2.2,2.2-4.3,3.3-7.6,3.3
		c-1.1,0-1.1,0-2.2-1.1l-2.2,1.1c-1.1,0-1.1,0-1.1-1.1c-2.2-2.2-3.3-3.3-4.3-3.3c-1.1,0-2.2,0-3.3,1.1c2.2,0,2.2,0,1.1,1.1
		c-4.3,1.1-7.6,2.2-8.7,4.3c-1.1,1.1-1.1,3.3-3.3,4.3c-1.1,1.1-1.1,1.1-2.2,2.2c0,1.1,1.1,2.2,2.2,3.3c1.1,2.2,3.3,3.3,4.3,5.4
		c1.1,2.2,3.3,3.3,5.4,5.4c3.3,1.1,7.6,2.2,11.9,2.2c2.2,0,5.4-1.1,7.6-3.3c1.1-3.3,3.3-3.3,5.4-3.3h2.2c1.1-1.1,3.3-3.3,5.4-3.3
		l2.2-2.2c1.1-1.1,3.3-2.2,5.4-3.3c1.1,0,2.2-1.1,3.3-2.2l1.1-2.2l3.3-1.1c2.2-1.1,4.3-2.2,6.5-3.3l1.1-1.1c1.1,0,1.1-1.1,2.2-1.1
		c1.1-1.1,2.2-2.2,4.3-3.3l2.2-3.3l3.3-1.1c1.1-2.2,3.3-4.3,5.4-5.4c1.1,0,2.2-1.1,3.3-2.2c0,0,0-1.1,1.1-2.2
		c2.2-1.1,4.3-1.1,4.3-1.1l2.2-2.2l3.3-2.2c3.3-4.3,4.3-6.5,5.4-6.5c1.1,0,2.2-1.1,2.2-1.1v6.5c0,2.2-1.1,3.3-2.2,5.4
		c-2.2,2.2-3.3,5.4-4.3,8.7l-7.6,7.6c-1.1,4.3-2.2,8.7-2.2,11.9c0,1.1,1.1,2.2,3.3,3.3c1.1,1.1,3.3,2.2,4.3,2.2c1.1,0,1.1,0,2.2-1.1
		c1.1-1.1,2.2-1.1,2.2-2.2l2.2-2.2c1.1-1.1,2.2-2.2,3.3-3.3c1.1-1.1,2.2-2.2,3.3-3.3c0-1.1,1.1-2.2,2.2-3.3c1.1-1.1,2.2-2.2,2.2-2.2
		c1.1-1.1,2.2-3.3,2.2-4.3h1.1c1.1,0,2.2-1.1,2.2-3.3c1.1-2.2,1.1-3.3,2.2-3.3c1.1-2.2,2.2-3.3,3.3-5.4c1.1,0,2.2-1.1,2.2-1.1
		c1.1-1.1,1.1-2.2,2.2-2.2l1.1-1.1c1.1-2.2,3.3-3.3,5.4-4.3l1.1-3.3c1.1,0,3.3-1.1,5.4-4.3l1.1-2.2l2.2-1.1h-1.1
		c1.1,0,2.2-1.1,2.2-2.2c1.1-2.2,1.1-2.2,2.2-2.2l3.3,1.1c1.1,0,2.2-1.1,3.3-3.3c1.1-1.1,2.2-2.2,4.3-3.3c2.2-2.2,3.3-3.3,6.5-4.3
		c1.1,0,2.2,1.1,2.2,1.1c0,6.5-2.2,9.8-5.4,10.8c-2.2,1.1-4.3,1.1-6.5,3.3c-1.1,1.1-2.2,2.2-3.3,2.2c-1.1,1.1-3.3,2.2-4.3,3.3h2.2
		c-1.1,0-2.2,1.1-3.3,2.2c0,1.1-1.1,2.2-2.2,2.2s-2.2,1.1-2.2,2.2l-2.2,1.1c-1.1,1.1-1.1,3.3-2.2,4.3c0,2.2,2.2,4.3,4.3,4.3l1.1,2.2
		c2.2,5.4,4.3,10.8,7.6,15.2l2.2,2.2c2.2,3.3,3.3,5.4,4.3,5.4c1.1,1.1,2.2,1.1,3.3,2.2c3.3,1.1,5.4,1.1,7.6,2.2
		c1.1,0,2.2-1.1,3.3-1.1c1.1-1.1,2.2-1.1,4.3-1.1c1.1,0,2.2-1.1,3.3-2.2c0-1.1,0-1.1,1.1-1.1l2.2,1.1h1.1c1.1,0,1.1-1.1,2.2-1.1
		l1.1,0c1.1-1.1,3.3-2.2,4.3-2.2c1.1,0,2.2-1.1,2.2-3.3c1.1-1.1,1.1-2.2,3.3-3.3c1.1,0,2.2-1.1,3.3-2.2l2.2-2.2
		c1.1-1.1,1.1-1.1,1.1-1.1l1.1-1.1l2.2-2.2c1.1-1.1,2.2-2.2,3.3-2.2c1.1,0,2.2-1.1,3.3-2.2c1.1-1.1,1.1-2.2,2.2-2.2
		c1.1,0,1.1-1.1,2.2-1.1c1.1-1.1,1.1-1.1,2.2-1.1h1.1l2.2,1.1c1.1-1.1,1.1-3.3,2.2-4.3c1.1-2.2,2.2-3.3,2.2-5.4s0-4.3,1.1-6.5
		C702.7,836.8,701.6,835.7,700.6,836.8z M435,834.6c-2.2,3.3-5.4,5.4-7.6,7.6c-1.1,1.1-2.2,2.2-3.3,3.3c-2.2,1.1-3.3,3.3-4.3,5.4
		c-1.1,0-2.2,1.1-3.3,2.2c-1.1,1.1-2.2,2.2-4.3,2.2l-3.3,3.3l-8.7,4.3c-1.1,1.1-1.1,2.2-3.3,3.3c-1.1,1.1-2.2,1.1-3.3,2.2
		c1.1-1.1,1.1-1.1,0-1.1c0,0-1.1,0-1.1,1.1l-3.3,2.2c-1.1,0-2.2,0-2.2,1.1c-1.1,1.1-3.3,2.2-4.3,2.2l-5.4,2.2
		c-2.2,0-3.3-2.2-3.3-7.6c0-1.1,1.1-2.2,2.2-3.3c1.1-1.1,2.2-3.3,2.2-4.3c0-1.1,1.1-3.3,2.2-3.3c1.1,0,2.2-1.1,3.3-2.2l1.1-2.2
		c0-1.1,1.1-2.2,4.3-3.3c0-2.2,2.2-4.3,4.3-5.4c2.2-1.1,4.3-3.3,6.5-6.5c2.2-1.1,4.3-1.1,5.4-3.3c2.2-2.2,5.4-3.3,8.7-4.3
		c2.2,0,4.3-1.1,6.5-2.2c1.1-1.1,2.2-1.1,4.3-1.1l3.3,1.1l2.2-1.1l2.2,1.1l3.3-1.1l3.3,1.1l1.1-1.1h1.1c1.1,0,1.1,0,1.1,1.1
		C442.5,829.2,438.2,831.4,435,834.6z"/>
</g>
<path class="dot" d="M811.7,424.8c84.9,0.1,153.4,68.7,153.4,153.5c-0.1,84.8-68.8,153.1-153.9,152.9
	c-84.6-0.2-152.9-68.8-152.8-153.4C658.5,493.3,727.2,424.7,811.7,424.8z"/>
</svg>
