<?xml version="1.0" encoding="utf-8"?>
<!-- Generator: Adobe Illustrator 21.0.0, SVG Export Plug-In . SVG Version: 6.00 Build 0)  -->
<svg version="1.1" id="Layer_1" xmlns="http://www.w3.org/2000/svg" xmlns:xlink="http://www.w3.org/1999/xlink" x="0px" y="0px"
	 viewBox="0 0 150 150" style="enable-background:new 0 0 150 150;" xml:space="preserve">
<style type="text/css">
	.st0{fill:#FFFFFF;}
</style>
<g>
	<path class="st0" d="M0.2,91.6L0.2,91.6c0,0,19.4-18.4,19.4-18.8V59.2l0-14.6h96.9c0.1,0,0.1,0.1,0.1,0.1v13.1
		c0,5.2,3.4,7.1,7.7,4.7c0,0,0,0,0,0l22.8-22.6c3.4-3.3,3.9-5.7,0-9.4L124.3,7.8c0,0,0,0,0,0c-4.4-2.3-7.7-0.5-7.7,4.7v13.1
		c0,0.1-0.1,0.1-0.1,0.1H0.2L0.2,91.6z"/>
	<path class="st0" d="M149.8,58.4L149.8,58.4c0,0-19.4,18.4-19.4,18.8v13.6l0,14.6H33.6c-0.1,0-0.1-0.1-0.1-0.1V92.3
		c0-5.2-3.4-7.1-7.7-4.7c0,0,0,0,0,0L2.9,110.2c-3.4,3.3-3.9,5.7,0,9.4l22.8,22.6c0,0,0,0,0,0c4.4,2.3,7.7,0.5,7.7-4.7v-13.1
		c0-0.1,0.1-0.1,0.1-0.1h116.3L149.8,58.4z"/>
</g>
</svg>
