<?xml version="1.0" encoding="utf-8"?>
<!-- Generator: Adobe Illustrator 21.0.0, SVG Export Plug-In . SVG Version: 6.00 Build 0)  -->
<svg version="1.1" id="Layer_1" xmlns="http://www.w3.org/2000/svg" xmlns:xlink="http://www.w3.org/1999/xlink" x="0px" y="0px"
	 viewBox="0 0 150 150" style="enable-background:new 0 0 150 150;" xml:space="preserve">
<style type="text/css">
	.st0{fill:#FFFFFF;}
</style>
<g>
	<g>
		<path class="st0" d="M0.2,48.3c0,0,24.3,0,26.9,0c0.5,0,1.2,0.3,1.6,0.8c17.8,21.6,35.6,43.2,53.2,65c2.5,3.1,5.3,4.5,9.3,4.5
			c7.7-0.2,15.4,0,23.2,0c0.5,0,1,0,1.7,0c0,1.4,0,2.7,0,4c0,3.1,0,6.1,0,9.2c0,1.8,0.8,3.2,2.5,3.9c1.2,0.5,2.3,0.5,3.3-0.4
			c8.8-7.3,17.7-14.6,26.5-21.9c2.2-1.8,2-4.9-0.3-6.8c-5.3-4.4-10.6-8.8-16-13.1c-3.2-2.7-6.5-5.3-9.7-8c-1.2-1-2.5-1.6-4-0.8
			c-1.6,0.8-2.4,2.1-2.4,3.9c0,3.7,0,7.5,0,11.2c0,0.4,0,0.7,0,1.2c-0.4,0-0.8,0.1-1.1,0.1c-5.2,0-10.3,0-15.5,0
			c-0.8,0-1.3-0.2-1.9-0.9C79.8,78.5,62.1,56.9,44.4,35.2c-2.5-3.1-5.4-4.6-9.4-4.5c-5,0.2-34.9,0-34.9,0V48.3z"/>
		<polygon class="st0" points="0.2,118.5 59.3,118.5 44.6,101 0.2,101 		"/>
		<path class="st0" d="M116,30.8c-7.2,0-48.4,0-48.4,0l13.1,17.5c0,0,25.9,0,34.4,0c0.2,0,0.5,0,0.9,0c0,0.5,0,1,0,1.5
			c0,3.9,0,7.8,0,11.6c0,1.8,0.7,3.1,2.3,3.9c1.2,0.6,2.4,0.6,3.6-0.3c8.8-7.3,17.6-14.5,26.4-21.8c2.1-1.8,2.2-4.8,0.1-6.6
			c-8.9-7.3-17.8-14.6-26.6-22c-1.1-0.9-2.2-0.8-3.3-0.2c-1.5,0.7-2.3,2-2.3,3.6c0,3.7,0,7.3,0,11C116,29.6,116,30.1,116,30.8z"/>
	</g>
</g>
</svg>
