<?xml version="1.0" encoding="utf-8"?>
<!-- Generator: Adobe Illustrator 21.0.0, SVG Export Plug-In . SVG Version: 6.00 Build 0)  -->
<svg version="1.1" id="Capa_1" xmlns="http://www.w3.org/2000/svg" xmlns:xlink="http://www.w3.org/1999/xlink" x="0px" y="0px"
	 viewBox="0 0 150 150" style="enable-background:new 0 0 150 150;" xml:space="preserve">
<style type="text/css">
	.st0{fill:#60558F;}
</style>
<path class="st0" d="M146.8,123.1c-1.3,0-2.4-0.8-3-2l0,0c-0.4-0.9-9.7-21.7-44.3-25.8c-7.2-0.9-15.9-1.3-26.4-1.4v26
	c0,1.2-0.6,2.3-1.7,2.8c-1.1,0.6-2.3,0.5-3.3-0.2L1.4,77.7C0.5,77.1,0,76.1,0,75c0-1.1,0.5-2.1,1.4-2.7l66.7-44.9
	c1-0.6,2.2-0.7,3.3-0.2c1.1,0.6,1.7,1.6,1.7,2.8v24.1c14.5,1.9,76.9,13.1,76.9,65.6c0,1.5-1.1,2.8-2.6,3.2
	C147.2,123.1,147,123.1,146.8,123.1z"/>
</svg>
