<?xml version="1.0" encoding="utf-8"?>
<!-- Generator: Adobe Illustrator 21.0.0, SVG Export Plug-In . SVG Version: 6.00 Build 0)  -->
<svg version="1.1" id="Capa_1" xmlns="http://www.w3.org/2000/svg" xmlns:xlink="http://www.w3.org/1999/xlink" x="0px" y="0px"
	 viewBox="0 0 512 512" style="enable-background:new 0 0 512 512;" xml:space="preserve">
<style type="text/css">
	.st0{fill:#FFFFFF;}
</style>
<path class="st0" d="M427.2,273.5c-6.9,88.8-80.5,159-171.3,159c-95.4,0-172.7-77.1-172.7-172.2S160.6,88,255.9,88
	c33.6,0,64.6,10,91.1,26.5l16,10.8l-13.9,14.5l-41.2,41l-5.9,5.9l-9.8,9.8h9.8h187.4V196h0.5l0-196l-8.2,8.1l-61.2,60.9
	c-44-38.1-101.3-61.3-164-61.3C117.3,7.7,4.6,120.6,4.6,259.8S117.3,512,256.3,512c134.4,0,243.9-105.6,251.1-238.5H427.2z"/>
</svg>
