<?xml version="1.0" encoding="utf-8"?>
<!-- Generator: Adobe Illustrator 21.0.0, SVG Export Plug-In . SVG Version: 6.00 Build 0)  -->
<svg version="1.1" id="Layer_1" xmlns="http://www.w3.org/2000/svg" xmlns:xlink="http://www.w3.org/1999/xlink" x="0px" y="0px"
	 viewBox="0 0 150 150" style="enable-background:new 0 0 150 150;" xml:space="preserve">
<style type="text/css">
	.st0{fill:#60558F;}
</style>
<g>
	<g>
		<path class="st0" d="M89.6,6.8c-14,11.5-28,22.8-41.9,34.5c-2.8,2.3-5.5,3.7-8.9,4.1v59c2.9,0.5,5.9,1.7,8.1,3.5
			c14.7,11.5,29,23.5,44.3,36.1c0-46.6,0-92.1,0-137.9C90.3,6.5,89.9,6.6,89.6,6.8z"/>
	</g>
	<path class="st0" d="M9.6,103.9c1.4,0,2.7,0,4.1,0L9.6,103.9C9.6,103.9,9.6,103.9,9.6,103.9z"/>
	<path class="st0" d="M129.5,23.6c-4.1-4.4-8.4-4.9-11.8-1.8c-3.5,3.3-3.1,7.1,1,11.8c21.7,24.7,21.6,56.1-0.1,81
		c-4.1,4.7-4.3,8.6-0.7,11.8c3.5,3.1,7.6,2.5,11.8-2c13.1-14.2,19.8-30.9,19.9-50.2C149.4,54.8,142.7,37.9,129.5,23.6z"/>
	<path class="st0" d="M112.7,40.7c-4-4.3-8.4-5.1-11.8-2.1c-3.4,3-3.2,7.2,0.7,11.8c5.9,6.8,9.1,14.5,9.1,22.1
		c0,10.7-2.4,17.3-9.4,25.5c-3.3,3.8-4.2,7.6-0.5,11.4c3.2,3.3,7.7,2.5,11.7-1.8C129.8,89.3,129.9,59.1,112.7,40.7z"/>
	<path class="st0" d="M32.5,45.4L32.5,45.4L6.3,45.3c-3.3,0-5.9,2.6-5.9,5.9V98c0,3.3,2.6,5.9,5.9,5.9H10h3.1h13.5h5.9V45.4z"/>
</g>
</svg>
